<svg width="31" height="35" viewBox="0 0 31 35" fill="none" xmlns="http://www.w3.org/2000/svg">
<g opacity="0.2">
<path d="M11.1864 24.5H12.7264V14.7H11.4524C10.7524 15.456 9.85636 15.974 8.91836 16.184V17.654C9.80036 17.472 10.5284 17.164 11.1864 16.59V24.5ZM18.0916 24.612C20.5556 24.612 21.9696 22.61 21.9696 19.6C21.9696 16.59 20.5556 14.588 18.0916 14.588C15.6136 14.588 14.2136 16.59 14.2136 19.6C14.2136 22.61 15.6136 24.612 18.0916 24.612ZM18.0916 23.17C16.6356 23.17 15.8656 21.812 15.8656 19.6C15.8656 17.388 16.6356 16.016 18.0916 16.016C19.5336 16.016 20.3176 17.388 20.3176 19.6C20.3176 21.812 19.5336 23.17 18.0916 23.17Z" fill="black"/>
<path d="M12.5 6L19.25 10.7631L19.25 1.23686L12.5 6Z" fill="black"/>
<path d="M15.5 5.5C23.232 5.5 29.5 11.768 29.5 19.5C29.5 27.232 23.232 33.5 15.5 33.5C7.76801 33.5 1.5 27.232 1.5 19.5C1.5 14.646 3.97027 10.369 7.72222 7.85752" stroke="black" stroke-width="2"/>
</g>
</svg>
